<?xml version="1.0" standalone="no"?>
<!DOCTYPE svg PUBLIC "-//W3C//DTD SVG 20010904//EN"
 "http://www.w3.org/TR/2001/REC-SVG-20010904/DTD/svg10.dtd">
<svg version="1.0" xmlns="http://www.w3.org/2000/svg"
 width="183.000000pt" height="183.000000pt" viewBox="0 0 183.000000 183.000000"
 preserveAspectRatio="xMidYMid meet">

<g transform="translate(0.000000,183.000000) scale(0.100000,-0.100000)"
fill="#000000" stroke="none">
<path d="M228 1533 l-28 -4 0 -413 0 -412 78 -44 c42 -24 124 -72 182 -105
368 -215 450 -258 474 -248 23 11 154 86 499 284 l197 113 0 412 0 411 -37 7
c-41 6 -1321 6 -1365 -1z m1362 -420 l0 -388 -332 -190 c-183 -104 -337 -190
-343 -190 -5 0 -160 86 -342 190 l-333 190 0 388 0 387 675 0 675 0 0 -387z"/>
<path d="M280 1255 l0 -205 635 0 635 0 0 205 0 205 -635 0 -635 0 0 -205z
m1120 154 l50 -11 0 -40 c0 -31 -3 -39 -14 -35 -83 32 -146 31 -189 -3 -76
-60 -15 -170 93 -170 25 0 30 4 30 25 0 19 -5 25 -21 25 -17 0 -20 5 -17 33
l3 32 60 0 60 0 3 -79 c2 -45 -2 -84 -7 -89 -6 -6 -52 -11 -103 -11 -81 0 -99
3 -138 24 -143 80 -111 261 53 300 47 12 80 11 137 -1z m-680 -34 l0 -35 -65
0 -65 0 0 -125 0 -125 -50 0 -50 0 0 125 0 125 -65 0 -65 0 0 35 0 35 180 0
180 0 0 -35z m310 -125 l80 -160 -54 0 c-50 0 -54 2 -66 30 -12 30 -13 30 -96
30 -83 0 -84 0 -99 -30 -14 -27 -20 -30 -66 -30 -28 0 -49 4 -47 9 2 5 37 77
78 160 l74 151 58 0 58 0 80 -160z"/>
<path d="M866 1272 l-26 -52 50 0 c27 0 50 3 50 8 -1 4 -11 27 -24 52 l-24 44
-26 -52z"/>
<path d="M282 876 l3 -130 310 -178 c171 -98 315 -178 320 -178 6 1 150 80
320 178 l310 178 3 131 3 130 -636 0 -636 0 3 -131z m98 45 c0 -41 13 -51 68
-51 20 0 22 5 22 45 0 41 2 45 25 45 l25 0 0 -140 c0 -78 -4 -140 -9 -140 -34
0 -41 13 -41 75 l0 64 -42 8 -43 9 -3 -38 c-3 -42 -5 -43 -33 -28 -17 9 -19
22 -19 100 0 89 0 90 25 90 22 0 25 -4 25 -39z m358 17 c-3 -20 -10 -23 -50
-26 l-48 -3 0 -43 0 -44 45 -6 c42 -7 45 -9 45 -38 0 -32 -3 -32 -72 -12 -16
5 -18 -2 -18 -53 l0 -58 48 -25 c36 -19 48 -31 50 -52 2 -16 0 -28 -4 -28 -4
0 -38 18 -76 40 l-68 41 0 164 0 165 76 0 c72 0 75 -1 72 -22z m124 -190 l3
-212 26 -15 c24 -13 29 -13 53 2 l26 17 0 210 0 210 25 0 25 0 -2 -230 -3
-230 -50 -29 -50 -28 -52 29 -53 30 0 229 0 229 25 0 25 0 2 -212z m388 187
c0 -23 -3 -25 -50 -25 l-50 0 0 -46 0 -46 45 6 c43 7 45 6 45 -18 0 -22 -6
-27 -45 -37 l-45 -11 0 -59 c0 -33 3 -59 8 -59 4 0 22 9 40 20 42 26 52 25 52
-4 0 -19 -13 -32 -67 -63 -38 -21 -71 -39 -75 -41 -5 -2 -8 89 -8 202 l0 206
75 0 c73 0 75 -1 75 -25z m250 -30 c0 -50 -2 -55 -26 -61 l-25 -7 26 -27 27
-28 -22 -12 c-19 -10 -26 -8 -54 19 -47 45 -56 41 -56 -29 0 -48 -4 -61 -19
-70 -11 -5 -22 -10 -25 -10 -3 0 -6 63 -6 140 l0 140 90 0 90 0 0 -55z"/>
<path d="M1370 890 c0 -21 16 -25 58 -14 39 11 27 34 -18 34 -33 0 -40 -3 -40
-20z"/>
</g>
</svg>
